<?xml version="1.0" encoding="iso-8859-1"?>
<!-- Uploaded to: SVG Repo, www.svgrepo.com, Generator: SVG Repo Mixer Tools -->
<svg fill="#000000" height="800px" width="800px" version="1.1" id="Capa_1" xmlns="http://www.w3.org/2000/svg" xmlns:xlink="http://www.w3.org/1999/xlink" 
	 viewBox="0 0 60.006 60.006" xml:space="preserve">
<path d="M59.713,19.299l-2.232-2.232c-0.045-0.083-0.102-0.161-0.171-0.23L43.05,2.577c-0.069-0.069-0.147-0.126-0.23-0.171
	l-2.107-2.107c-0.391-0.391-1.023-0.391-1.414,0s-0.391,1.023,0,1.414l1.97,1.97c-0.069,0.434-0.18,1.098-0.331,1.911
	c-0.995,5.362-3.207,9.609-6.962,13.365l-4.133,4.133L28.252,21.5c-0.391-0.391-1.023-0.391-1.414,0l-14.64,14.64
	c-0.391,0.391-0.391,1.023,0,1.414l1.591,1.591l-4.615,4.615l-0.461-0.461c-0.391-0.391-1.023-0.391-1.414,0s-0.391,1.023,0,1.414
	l0.56,0.56L1.43,52.638c-0.005,0.006-0.012,0.01-0.018,0.016l-1.011,1.157l-0.048,0.06c-0.53,0.71-0.458,1.718,0.168,2.344
	l3.269,3.269c0.339,0.339,0.788,0.516,1.251,0.516c0.395,0,0.799-0.129,1.152-0.396l1.156-1.011c0,0,0,0,0,0l7.381-6.447
	l0.567,0.567c0.195,0.195,0.451,0.293,0.707,0.293s0.512-0.098,0.707-0.293c0.391-0.391,0.391-1.023,0-1.414l-0.467-0.467
	l0.092-0.092c0.183,0.167,0.418,0.267,0.668,0.267h2c0.266,0,0.52-0.105,0.707-0.293l1-1c0.188-0.188,0.293-0.441,0.293-0.707v-2
	c0-0.25-0.1-0.484-0.267-0.668l0.599-0.599c0.183,0.167,0.418,0.267,0.668,0.267h2c0.266,0,0.52-0.105,0.707-0.293l1-1
	c0.188-0.188,0.293-0.441,0.293-0.707v-2c0-0.25-0.1-0.484-0.267-0.668l0.599-0.599c0.183,0.167,0.418,0.267,0.668,0.267h2
	c0.266,0,0.52-0.105,0.707-0.293l1-1c0.188-0.188,0.293-0.441,0.293-0.707v-2c0-0.25-0.1-0.484-0.267-0.668l0.599-0.599
	c0.183,0.167,0.418,0.267,0.668,0.267h2c0.266,0,0.52-0.105,0.707-0.293l1-1c0.188-0.188,0.293-0.441,0.293-0.707v-2
	c0-0.25-0.1-0.484-0.267-0.668l0.599-0.599c0.183,0.167,0.418,0.267,0.668,0.267h2c0.266,0,0.52-0.105,0.707-0.293l1-1
	c0.188-0.188,0.293-0.441,0.293-0.707v-2c0-0.25-0.1-0.484-0.267-0.668l0.309-0.309c3.873-3.873,8.082-6.123,13.246-7.08
	c0.812-0.151,1.476-0.262,1.91-0.331l2.095,2.095c0.195,0.195,0.451,0.293,0.707,0.293s0.512-0.098,0.707-0.293
	C60.103,20.323,60.103,19.69,59.713,19.299z M27.545,23.621l0.885,0.885l-3.764,3.764l-0.885-0.885L27.545,23.621z M22.367,28.799
	l0.885,0.885l-3.086,3.086l-0.885-0.885L22.367,28.799z M14.319,36.847l3.548-3.548l0.884,0.884l-3.548,3.548L14.319,36.847z
	 M15.204,40.56l1.237,1.237c0.195,0.195,0.451,0.293,0.707,0.293s0.512-0.098,0.707-0.293c0.391-0.391,0.391-1.023,0-1.414
	l-1.237-1.237l3.548-3.548l2.116,2.116c0.195,0.195,0.451,0.293,0.707,0.293s0.512-0.098,0.707-0.293
	c0.391-0.391,0.391-1.023,0-1.414l-2.115-2.115l3.086-3.086l2.115,2.115c0.195,0.195,0.451,0.293,0.707,0.293
	s0.512-0.098,0.707-0.293c0.391-0.391,0.391-1.023,0-1.414l-2.115-2.115l3.764-3.764l1.236,1.236c0.391,0.391,1.023,0.391,1.414,0
	s0.391-1.023,0-1.414l-1.236-1.236l3.426-3.426l1.604,1.604l2.322,2.322h-1.604c-0.266,0-0.52,0.105-0.707,0.293l-1,1
	c-0.188,0.188-0.293,0.441-0.293,0.707v2c0,0.072,0.008,0.145,0.023,0.214l-0.81,0.81c-0.069-0.016-0.142-0.023-0.214-0.023h-2
	c-0.266,0-0.52,0.105-0.707,0.293l-1,1c-0.188,0.188-0.293,0.441-0.293,0.707v2c0,0.072,0.008,0.145,0.023,0.214l-0.81,0.81
	c-0.069-0.016-0.142-0.023-0.214-0.023h-2c-0.266,0-0.52,0.105-0.707,0.293l-1,1c-0.188,0.188-0.293,0.441-0.293,0.707v2
	c0,0.072,0.008,0.145,0.023,0.214l-0.81,0.81c-0.069-0.016-0.142-0.023-0.214-0.023h-2c-0.266,0-0.52,0.105-0.707,0.293l-1,1
	c-0.188,0.188-0.293,0.441-0.293,0.707v2c0,0.072,0.008,0.145,0.023,0.214l-0.81,0.81c-0.069-0.016-0.142-0.023-0.214-0.023h-2
	c-0.266,0-0.52,0.105-0.707,0.293l-1,1c-0.188,0.188-0.293,0.441-0.293,0.707v2c0,0.072,0.008,0.145,0.023,0.214l-0.145,0.145
	l-4.243-4.243L15.204,40.56z M2.074,54.939l0.848-0.972c0.407-0.462,0.97-0.73,1.585-0.75c0.624-0.014,1.2,0.208,1.638,0.646
	s0.666,1.019,0.646,1.636c-0.021,0.618-0.289,1.183-0.756,1.59l-0.966,0.847L2.074,54.939z M8.732,54.735
	c-0.144-0.859-0.549-1.664-1.172-2.287c-0.621-0.621-1.429-1.035-2.283-1.178l3.998-4.581l4.042,4.042L8.732,54.735z M19.006,48.592
	l-0.414,0.414H17.42l-0.381-0.381l-0.033-1.205l0.414-0.414h1.171l0.032,0.032c0.001,0.001,0.002,0.001,0.003,0.002l0.38,0.38
	V48.592z M24.006,43.592l-0.414,0.414H22.42l-0.381-0.381l-0.033-1.205l0.414-0.414h1.171l0.032,0.032
	c0.001,0.001,0.002,0.001,0.003,0.002l0.38,0.38V43.592z M29.006,38.592l-0.414,0.414H27.42l-0.381-0.381l-0.033-1.205l0.414-0.414
	h1.171l0.032,0.032c0.001,0.001,0.002,0.001,0.003,0.002l0.38,0.38V38.592z M34.006,33.592l-0.414,0.414H32.42l-0.381-0.381
	l-0.033-1.205l0.414-0.414h1.171l0.032,0.032c0.001,0.001,0.002,0.001,0.003,0.002l0.38,0.38V33.592z M39.006,28.592l-0.414,0.414
	H37.42l-0.381-0.381l-0.033-1.205l0.414-0.414h1.171l0.032,0.032c0.001,0.001,0.002,0.001,0.003,0.002l0.38,0.38V28.592z
	 M53.929,16.983c-5.262,0.976-9.6,3.187-13.578,6.936l-4.265-4.264c3.591-3.844,5.824-8.334,6.819-13.695
	c0.035-0.188,0.067-0.368,0.098-0.541L54.47,16.885C54.297,16.915,54.118,16.948,53.929,16.983z"/>
</svg>