<?xml version="1.0" encoding="iso-8859-1"?>
<!-- Uploaded to: SVG Repo, www.svgrepo.com, Generator: SVG Repo Mixer Tools -->
<svg fill="#000000" height="800px" width="800px" version="1.1" id="Layer_1" xmlns="http://www.w3.org/2000/svg" xmlns:xlink="http://www.w3.org/1999/xlink" 
	 viewBox="0 0 470 470" xml:space="preserve">
<g>
	<g>
		<g>
			<path d="M83.75,0H7.5C3.357,0,0,3.357,0,7.5v285c0,4.143,3.357,7.5,7.5,7.5h76.25c4.143,0,7.5-3.357,7.5-7.5V7.5
				C91.25,3.357,87.893,0,83.75,0z M76.25,285H15V45h23.125v22.5c0,4.143,3.357,7.5,7.5,7.5s7.5-3.357,7.5-7.5V45H76.25V285z
				 M76.25,30H53.125v-2.5c0-4.143-3.357-7.5-7.5-7.5s-7.5,3.357-7.5,7.5V30H15V15h61.25V30z"/>
			<path d="M356.25,0H280c-4.143,0-7.5,3.357-7.5,7.5V90h-75V7.5c0-4.143-3.357-7.5-7.5-7.5h-76.25c-4.143,0-7.5,3.357-7.5,7.5v225
				c0,4.143,3.357,7.5,7.5,7.5s7.5-3.357,7.5-7.5V45h23.125v22.5c0,4.143,3.357,7.5,7.5,7.5s7.5-3.357,7.5-7.5V45H182.5v240h-61.25
				v-22.5c0-4.143-3.357-7.5-7.5-7.5s-7.5,3.357-7.5,7.5v30c0,4.143,3.357,7.5,7.5,7.5H190c4.143,0,7.5-3.357,7.5-7.5V105h15v155
				H210c-4.143,0-7.5,3.357-7.5,7.5s3.357,7.5,7.5,7.5h2.5v45L109,458c-2.485,3.313-1.813,8.015,1.5,10.5
				c1.35,1.012,2.929,1.5,4.494,1.5c2.28,0,4.532-1.035,6.006-3l57.608-76.811l38.037,19.019c0.042,0.021,0.088,0.036,0.13,0.056
				c0.182,0.087,0.368,0.167,0.557,0.239c0.072,0.027,0.144,0.055,0.217,0.079c0.191,0.066,0.386,0.123,0.583,0.174
				c0.072,0.02,0.144,0.04,0.216,0.056c0.205,0.047,0.413,0.081,0.623,0.11c0.066,0.009,0.131,0.022,0.198,0.03
				c0.273,0.029,0.549,0.048,0.83,0.048h30c0.281,0,0.557-0.019,0.83-0.048c0.066-0.008,0.132-0.021,0.198-0.03
				c0.21-0.029,0.419-0.063,0.623-0.11c0.073-0.016,0.144-0.036,0.216-0.056c0.198-0.051,0.392-0.107,0.583-0.174
				c0.073-0.024,0.144-0.052,0.216-0.079c0.19-0.072,0.376-0.152,0.558-0.239c0.043-0.021,0.088-0.034,0.13-0.056l38.037-19.019
				L349,467c1.474,1.965,3.726,3,6.006,3c1.565,0,3.146-0.488,4.494-1.5c3.313-2.485,3.985-7.187,1.5-10.5l-61.467-81.955
				C299.532,376.043,257.5,320,257.5,320V105h15v187.5c0,4.143,3.357,7.5,7.5,7.5h76.25c4.143,0,7.5-3.357,7.5-7.5V7.5
				C363.75,3.357,360.393,0,356.25,0z M182.5,30h-23.125v-2.5c0-4.143-3.357-7.5-7.5-7.5s-7.5,3.357-7.5,7.5V30H121.25V15h61.25V30z
				 M212.5,390.365l-24.745-12.372L212.5,345V390.365z M242.5,395h-15v-95h15V395z M242.5,285h-15V105h15V285z M282.244,377.992
				L257.5,390.365V345L282.244,377.992z M348.75,285H287.5V45h23.125v22.5c0,4.143,3.357,7.5,7.5,7.5s7.5-3.357,7.5-7.5V45h23.125
				V285z M348.75,30h-23.125v-2.5c0-4.143-3.357-7.5-7.5-7.5s-7.5,3.357-7.5,7.5V30H287.5V15h61.25V30z"/>
			<path d="M462.5,0h-76.25c-4.143,0-7.5,3.357-7.5,7.5v285c0,4.143,3.357,7.5,7.5,7.5h76.25c4.143,0,7.5-3.357,7.5-7.5V7.5
				C470,3.357,466.643,0,462.5,0z M455,285h-61.25V45h23.125v22.5c0,4.143,3.357,7.5,7.5,7.5s7.5-3.357,7.5-7.5V45H455V285z M455,30
				h-23.125v-2.5c0-4.143-3.357-7.5-7.5-7.5s-7.5,3.357-7.5,7.5V30H393.75V15H455V30z"/>
		</g>
	</g>
</g>
</svg>