<?xml version="1.0" encoding="iso-8859-1"?>
<!-- Uploaded to: SVG Repo, www.svgrepo.com, Generator: SVG Repo Mixer Tools -->
<svg fill="#000000" height="800px" width="800px" version="1.1" id="Layer_1" xmlns="http://www.w3.org/2000/svg" xmlns:xlink="http://www.w3.org/1999/xlink" 
	 viewBox="0 0 512.002 512.002" xml:space="preserve">
<g>
	<g>
		<g>
			<path d="M91.788,261.372c-4.203,0-7.608,3.406-7.608,7.608v59.172c0,4.202,3.405,7.608,7.608,7.608
				c4.202,0,7.608-3.406,7.608-7.608v-59.172C99.396,264.778,95.989,261.372,91.788,261.372z"/>
			<path d="M466.751,20.52L444.488,8.049c-2.805-1.57-6.167-2.055-9.221-1.318c-0.752,0.182-1.461,0.444-2.14,0.753
				c-10.189-2.732-22.661-5.021-37.109-6.81c-0.093-0.011-0.187-0.021-0.279-0.029c-34.666-2.994-62.331,4.453-82.251,22.133
				c-3.143,2.79-3.563,7.722-0.64,10.74c3.765,3.888,9.292,1.925,10.74,0.64c16.648-14.776,40.435-20.953,70.701-18.365
				c11.441,1.419,21.487,3.157,30.015,5.169l-0.792,1.926c-23.399-4.574-42.321-1.348-56.283,9.669
				c-17.06,13.461-25.559,38.036-25.263,73.042c0.001,0.045,0.001,0.089,0.003,0.135l6.657,254.504
				c0.862,45.751-11.349,80.784-36.293,104.123c-39.671,37.119-99.146,32.505-99.732,32.455c-0.222-0.019-0.444-0.029-0.666-0.029
				c-64.108,0-120.08-45.773-133.586-107.787h113.829c0.97,4.174,2.205,8.083,3.703,11.688c-3.453,2.58-6.372,5.863-8.565,9.723
				c-4.178,7.352-5.242,15.891-2.998,24.044c3.771,13.695,16.322,23.661,30.508,23.261c14.129-0.4,23.36-8.671,27.537-16.023
				c2.078-3.657,3.385-7.608,3.898-11.658c6.33-0.915,16.349-3.737,25.345-12.25c9.717-9.194,15.759-22.5,18.072-39.65
				c2.354-1.197,4.33-3.019,5.72-5.25h24.773c4.203,0,7.608-3.406,7.608-7.608s-3.405-7.608-7.608-7.608h-24.773
				c-1.135-1.823-2.66-3.374-4.466-4.533l0.404-19.269c1.632-1.127,3.012-2.585,4.063-4.272h24.773c4.203,0,7.608-3.406,7.608-7.608
				s-3.405-7.608-7.608-7.608h-24.773c-0.942-1.513-2.155-2.835-3.573-3.905l0.431-20.585c1.238-1.008,2.294-2.222,3.141-3.584
				h24.773c4.203,0,7.608-3.406,7.608-7.608s-3.405-7.608-7.608-7.608h-24.773c-0.738-1.186-1.641-2.254-2.681-3.177l0.464-22.142
				c0.849-0.822,1.591-1.748,2.217-2.756h24.773c4.203,0,7.608-3.406,7.608-7.608s-3.405-7.608-7.608-7.608h-24.773
				c-0.519-0.835-1.119-1.613-1.792-2.322l0.502-23.983c0.475-0.554,0.903-1.147,1.29-1.769h24.773c4.203,0,7.608-3.406,7.608-7.608
				c0-4.202-3.405-7.608-7.608-7.608h-24.773c-0.28-0.45-0.581-0.885-0.908-1.3l0.566-26.823c0.127-0.184,25.115,0.049,25.115,0.049
				c4.203,0,7.608-3.406,7.608-7.608s-3.405-7.608-7.608-7.608h-24.773c-0.009-0.015-0.018-0.03-0.027-0.045l0.587-28.029h24.213
				c4.203,0,7.608-3.406,7.608-7.608s-3.405-7.608-7.608-7.608h-23.911c0.505-8.925,2.567-25.647,10.578-41.613
				c1.885-3.755,0.368-8.327-3.387-10.212c-3.756-1.886-8.328-0.367-10.212,3.387c-7.692,15.329-10.631,30.937-11.728,41.714
				c-7.196,0.816-12.789,6.916-12.789,14.33c0,7.098,5.128,12.985,11.878,14.191l-0.313,14.955
				c-6.596,1.329-11.565,7.155-11.565,14.143c0,6.777,4.677,12.446,10.976,13.996l-0.323,15.38
				c-6.135,1.662-10.654,7.253-10.654,13.913c0,6.45,4.234,11.91,10.075,13.758l-0.333,15.896c-5.664,1.948-9.741,7.31-9.741,13.636
				c0,6.113,3.807,11.326,9.175,13.428l-0.347,16.561c-5.187,2.187-8.828,7.319-8.828,13.302c0,5.765,3.389,10.726,8.276,13.037
				l-0.364,17.39c-4.69,2.382-7.912,7.241-7.912,12.862c0,5.407,2.978,10.112,7.38,12.583l-0.384,18.356
				c-4.186,2.526-6.995,7.104-6.995,12.35c0,4.724,2.28,8.904,5.788,11.536c-1.864,13.105-6.258,23.074-13.151,29.716
				c-6.093,5.87-12.816,7.797-16.882,8.424c-1.297-3.459-3.18-6.596-5.5-9.329l4.516-6.253c2.46-3.406,1.693-8.162-1.712-10.623
				c-3.405-2.46-8.161-1.694-10.622,1.713l-4.513,6.247c-6.4-3.637-15.104-2.174-16.743-1.913c-0.93-2.246-1.736-4.669-2.417-7.251
				c9.456-3.536,14.483-12.957,14.483-21.861c0-0.092-0.001-0.186-0.003-0.278c-0.176-9.602-6.085-19.714-16.856-22.414v-88.58
				c11.777-0.883,21.09-10.74,21.09-22.739v-2.866c0-12.577-10.232-22.81-22.809-22.81h-30.642c-4.203,0-7.608,3.406-7.608,7.608
				c0,4.202,3.405,7.608,7.608,7.608h30.642c4.187,0,7.594,3.407,7.594,7.595v2.866c0,4.187-3.406,7.595-7.594,7.595H61.748
				c-4.188,0-7.595-3.407-7.595-7.595v-2.866c0-4.187,3.406-7.595,7.595-7.595h77.529c4.203,0,7.608-3.406,7.608-7.608
				c0-4.202-3.405-7.608-7.608-7.608H61.748c-12.577,0-22.81,10.233-22.81,22.81v2.866c0,11.998,9.314,21.856,21.09,22.739v88.007
				c-5.283,0.533-10.055,2.768-13.629,6.442c-6.18,6.353-6.601,14.421-6.557,17.048c0.023,1.743,0.329,5.784,2.413,10.149
				c3.574,7.485,10.491,12.184,18.977,12.891c0.42,0.034,0.842,0.053,1.263,0.053h0.316c6.45,33.101,23.956,63.364,49.744,85.759
				c27.577,23.947,62.745,37.167,99.066,37.242c26.125,0,75.677-3.457,111.005-36.432c19.555-18.253,32.215-42.474,37.859-72.318
				l15.78-1.279c4.031-0.327,7.101-3.748,6.991-7.79l-1.021-37.432c0,0,10.879-0.364,10.254-11.19
				c-0.328-5.676-5.184-10.049-10.828-9.887l-6.537-239.81c-0.112-4.119-3.484-7.401-7.605-7.401h-9.657
				c1.982-20.905,8.274-35.66,18.793-43.961c10.6-8.365,25.883-10.504,45.466-6.389c0.049,0.084,0.086,0.171,0.138,0.255
				c1.651,2.668,4.377,4.69,7.479,5.547l24.593,6.801c1.123,0.31,9.959,2.202,14.136-6.452l3.789-9.214
				C474.436,29.745,472.069,23.499,466.751,20.52z M210.475,410.199c1.435-0.396,2.908-0.595,4.377-0.595
				c0.797-0.001,1.579,0.068,2.351,0.181l-8.532,11.812c-2.46,3.406-1.693,8.162,1.712,10.623c1.347,0.973,6.364,3.33,10.623-1.712
				l8.525-11.803c0.474,0.944,0.87,1.938,1.158,2.984c1.166,4.234,0.613,8.669-1.556,12.488c-2.17,3.819-5.697,6.563-9.932,7.729
				c-1.435,0.396-2.908,0.595-4.377,0.595c-7.366,0-13.88-4.968-15.837-12.084c-1.166-4.234-0.613-8.669,1.556-12.488
				C202.713,414.109,206.24,411.365,210.475,410.199z M75.242,254.482h114.654v87.806H75.242V254.482z M62.494,373.784
				c-7.438-0.62-7.438-8.101-7.438-8.101s-0.226-8.179,7.438-8.179h136.822c7.289,0,7.438,8.179,7.438,8.179s0,7.988-7.438,8.101
				H62.494z M367.848,387.389l-5.124,0.415c0.921-8.871,1.061-29.929,1.061-29.929l3.252-0.198L367.848,387.389z M360.116,103.678
				l6.347,232.904l-3.229,0.197c0,0-6.055-232.528-6.055-233.101H360.116z M455.698,35.307l-18.711-5.175l2.957-7.189l16.937,9.488
				L455.698,35.307z"/>
			<path d="M314.492,434.408c1.107,0.565,7.467,2.619,10.234-3.319c3.278-7.036,6.419-14.559,8.595-22.721
				c1.082-4.06-1.332-8.229-5.391-9.31c-4.063-1.079-8.229,1.332-9.311,5.392c-1.899,7.127-4.404,13.763-7.446,19.724
				C309.263,427.917,310.749,432.499,314.492,434.408z"/>
			<path d="M297.332,443.577c-24.897,25.37-62.425,28.108-77.404,28.108c-4.203,0-7.608,3.406-7.608,7.608
				c0,4.202,3.405,7.608,7.608,7.608c16.899,0,59.329-3.183,88.263-32.667c2.943-2.998,2.898-7.816-0.101-10.758
				C305.092,440.534,300.274,440.576,297.332,443.577z"/>
		</g>
	</g>
</g>
</svg>