<?xml version="1.0" encoding="iso-8859-1"?>
<!-- Uploaded to: SVG Repo, www.svgrepo.com, Generator: SVG Repo Mixer Tools -->
<svg fill="#000000" height="800px" width="800px" version="1.1" id="Capa_1" xmlns="http://www.w3.org/2000/svg" xmlns:xlink="http://www.w3.org/1999/xlink" 
	 viewBox="0 0 59.25 59.25" xml:space="preserve">
<g>
	<path d="M38.447,15.78c0.824,0.059,1.639,0.221,2.42,0.48c0.105,0.035,0.212,0.052,0.316,0.052c0.419,0,0.809-0.265,0.949-0.684
		c0.175-0.524-0.108-1.091-0.632-1.265c-0.94-0.313-1.92-0.509-2.912-0.578c-0.555-0.036-1.029,0.376-1.068,0.927
		S37.896,15.742,38.447,15.78z"/>
	<path d="M56.326,4.535c-3.898-3.898-10.242-3.9-14.127-0.014L39.74,6.883c-2.507-2.398-5.285-4.514-8.308-6.263
		c-0.536-0.456-1.279-0.577-1.931-0.301c-0.693,0.292-1.136,0.968-1.127,1.722l0.083,7.538c0.012,2.712-1.046,5.344-2.904,7.221
		l-6.719,6.813l-1.009-1.009C17.928,22.443,18,22.265,18,22.072v-2c0-0.266-0.105-0.52-0.293-0.707l-1-1
		c-0.188-0.188-0.442-0.293-0.707-0.293h-2c-0.265,0-0.52,0.105-0.707,0.293l-1,1C12.105,19.552,12,19.806,12,20.072v2
		c0,0.266,0.105,0.52,0.293,0.707l1,1c0.188,0.188,0.442,0.293,0.707,0.293h2c0.134,0,0.265-0.028,0.387-0.079l1.043,1.043
		l-4.213,4.272l-1.22-1.22c0-0.006,0.003-0.011,0.003-0.016v-2c0-0.266-0.105-0.52-0.293-0.707l-1-1
		c-0.188-0.188-0.442-0.293-0.707-0.293H8c-0.265,0-0.52,0.105-0.707,0.293l-1,1C6.105,25.552,6,25.806,6,26.072v2
		c0,0.266,0.105,0.52,0.293,0.707l1,1C7.48,29.966,7.735,30.072,8,30.072h2c0.265,0,0.52-0.105,0.707-0.293l0.076-0.076l1.029,1.029
		l-4.214,4.272L5.945,33.35C5.971,33.259,6,33.168,6,33.072v-2c0-0.266-0.105-0.52-0.293-0.707l-1-1
		C4.52,29.177,4.265,29.072,4,29.072H2c-0.265,0-0.52,0.105-0.707,0.293l-1,1C0.105,30.552,0,30.806,0,31.072v2
		c0,0.266,0.105,0.52,0.293,0.707l1,1C1.48,34.966,1.735,35.072,2,35.072h2c0.226,0,0.435-0.09,0.61-0.228l1.584,1.584l-0.857,0.869
		l-4.852,3.321l2.955,2.955c-2.603,3.929-2.122,9.192,1.268,12.581c1.95,1.95,4.51,2.925,7.071,2.924
		c2.561,0,5.122-0.975,7.071-2.924l0.101-0.101c0.607,0.357,1.295,0.562,2.021,0.562c1.071,0,2.075-0.415,2.828-1.168l14.143-14.143
		c0.753-0.753,1.168-1.757,1.168-2.828c0-0.726-0.205-1.414-0.562-2.02l2.17-2.171c0.176,0.684,0.516,1.314,1.026,1.825
		c0.753,0.753,1.757,1.168,2.828,1.168s2.075-0.415,2.829-1.168l5.342-5.342c1.56-1.56,1.56-4.098,0-5.657
		c-0.523-0.522-1.158-0.853-1.826-1.025l5.408-5.408C60.224,14.779,60.224,8.434,56.326,4.535z M14,21.658v-1.172l0.414-0.414h1.172
		L16,20.486v1.172l-0.414,0.414h-1.172L14,21.658z M8,27.658v-1.172l0.414-0.414h1.172L10,26.486v1.172l-0.414,0.414H8.414L8,27.658
		z M2.414,33.072L2,32.658v-1.172l0.414-0.414h1.172L4,31.486v1.172l-0.414,0.414H2.414z M51.33,29.354l-5.342,5.342
		c-0.751,0.75-2.078,0.752-2.829,0c-0.375-0.375-0.582-0.877-0.582-1.414c0-0.536,0.207-1.038,0.582-1.414l5.343-5.343
		c0.39-0.39,0.901-0.584,1.414-0.584c0.512,0,1.024,0.194,1.414,0.584C52.11,27.305,52.11,28.574,51.33,29.354z M26.976,18.205
		c2.227-2.251,3.495-5.398,3.481-8.642l-0.08-7.243c4.691,2.705,8.798,6.303,12.105,10.557c0.143,0.184,0.28,0.371,0.42,0.557
		c0.369,0.491,0.726,0.99,1.073,1.497c0.138,0.201,0.277,0.402,0.412,0.606c0.452,0.686,0.891,1.382,1.303,2.097l-7.25-0.081
		c-0.018,0-0.036,0-0.054,0c-0.097,0-0.192,0.012-0.289,0.014c-1.498,0.03-2.957,0.315-4.334,0.864
		c-1.514,0.603-2.849,1.481-3.969,2.613L10.219,40.892L7.39,38.063L26.976,18.205z M20.264,47.668l-7.008-7.008l4.213-4.272
		l7.037,7.037L20.264,47.668z M25.92,42.012l-7.047-7.047l4.214-4.272l7.076,7.076L25.92,42.012z M5.861,39.362l0.486,0.486
		l2.612,2.612l-1.447,2.355l-3.909-3.909L5.861,39.362z M17.435,54.74c-1.504,1.504-3.513,2.332-5.657,2.332
		s-4.153-0.828-5.657-2.332c-2.613-2.612-3.066-6.617-1.233-9.718l1.119,1.119l1.881,1.882l0,0l0,0l1.592-2.593l1.534-2.498
		l0.836-0.847l6.998,6.998l-0.707,0.707c-0.181,0.181-0.337,0.378-0.476,0.583c-0.046,0.068-0.081,0.139-0.122,0.209
		c-0.084,0.142-0.164,0.286-0.229,0.436c-0.037,0.085-0.067,0.171-0.098,0.257c-0.051,0.143-0.094,0.287-0.128,0.433
		c-0.021,0.091-0.04,0.181-0.055,0.272c-0.024,0.152-0.037,0.303-0.044,0.456c-0.004,0.086-0.012,0.172-0.01,0.258
		c0.003,0.183,0.024,0.364,0.052,0.545c0.009,0.055,0.009,0.11,0.02,0.165c0.046,0.233,0.115,0.462,0.203,0.685
		c0.024,0.062,0.06,0.12,0.087,0.181c0.058,0.128,0.111,0.257,0.183,0.379L17.435,54.74z M36.527,39.89L22.385,54.033
		c-0.751,0.752-2.077,0.752-2.828,0c-0.78-0.78-0.78-2.049,0-2.829l14.142-14.142c0.751-0.752,2.078-0.75,2.829,0
		c0.375,0.375,0.582,0.877,0.582,1.414S36.903,39.515,36.527,39.89z M37.145,35.03c-0.099-0.058-0.206-0.099-0.31-0.147
		c-0.084-0.04-0.166-0.086-0.253-0.12c-0.073-0.028-0.15-0.045-0.226-0.068c-0.398-0.13-0.813-0.214-1.244-0.214
		c-0.613,0-1.198,0.15-1.733,0.408c-0.023,0.011-0.044,0.024-0.067,0.036c-0.169,0.085-0.335,0.173-0.491,0.282
		c-0.191,0.13-0.372,0.276-0.538,0.442l-0.707,0.707l-7.086-7.086l6.727-6.82c1.132-1.145,2.569-1.984,4.148-2.456
		c0.01-0.003,0.02-0.007,0.031-0.01c0.216-0.064,0.439-0.111,0.66-0.161c0.113-0.025,0.223-0.058,0.337-0.08
		c0.115-0.022,0.232-0.032,0.348-0.05c0.552-0.085,1.112-0.138,1.683-0.139l7.543,0.084c0,0,0.001,0,0.001,0c0.007,0,0.013,0,0.02,0
		h0.001l0.002,0c0.166,0,0.325-0.029,0.479-0.071c0.035-0.009,0.069-0.018,0.103-0.03c0.146-0.049,0.285-0.112,0.413-0.194
		c0.025-0.016,0.046-0.035,0.07-0.052c0.112-0.08,0.214-0.171,0.305-0.273c0.02-0.022,0.041-0.041,0.06-0.064
		c0.098-0.121,0.178-0.257,0.244-0.402c0.007-0.015,0.018-0.025,0.024-0.04c0.008-0.018,0.008-0.038,0.015-0.057
		c0.052-0.133,0.091-0.272,0.112-0.42c0.001-0.011,0.005-0.021,0.007-0.032c0.001-0.006,0.003-0.011,0.003-0.016
		c0.007-0.072-0.007-0.141-0.007-0.212c-0.001-0.097,0.006-0.194-0.01-0.29c-0.001-0.008,0.001-0.018-0.001-0.026
		c-0.021-0.116-0.065-0.224-0.107-0.333c-0.015-0.038-0.02-0.079-0.037-0.116c-0.071-0.153-0.161-0.298-0.273-0.429
		c-0.429-0.742-0.888-1.467-1.361-2.183c-0.139-0.21-0.283-0.416-0.425-0.624c-0.366-0.534-0.743-1.058-1.132-1.575
		c-0.141-0.187-0.279-0.375-0.422-0.56c-0.526-0.677-1.065-1.343-1.629-1.987c-0.405-0.462-0.824-0.92-1.251-1.367l2.428-2.333
		c1.504-1.504,3.513-2.332,5.657-2.332c2.144,0,4.152,0.828,5.656,2.332c3.119,3.12,3.119,8.195,0,11.314L37.145,35.03z"/>
</g>
</svg>