<?xml version="1.0" encoding="iso-8859-1"?>
<!-- Uploaded to: SVG Repo, www.svgrepo.com, Generator: SVG Repo Mixer Tools -->
<svg fill="#000000" height="800px" width="800px" version="1.1" id="Layer_1" xmlns="http://www.w3.org/2000/svg" xmlns:xlink="http://www.w3.org/1999/xlink" 
	 viewBox="0 0 511.998 511.998" xml:space="preserve">
<g>
	<g>
		<path d="M391.266,190.918c-0.941-4.094-5.023-6.646-9.115-5.707c-6.981,1.605-14.264,2.961-21.644,4.031
			c-4.156,0.602-7.256,4.498-6.434,8.617c1.454,7.276,8.247,6.488,8.617,6.434c7.789-1.129,15.484-2.563,22.869-4.26
			C389.652,199.091,392.207,195.011,391.266,190.918z"/>
	</g>
</g>
<g>
	<g>
		<path d="M505.332,159.535c-6.599-21.376-15.903-25.864-22.546-25.864c-6.161,0-12.729,6.394-12.793,6.459
			c0,0-19.628,22.908-63.274,38.053c-3.968,1.377-6.068,5.709-4.691,9.676c1.376,3.967,5.721,6.1,9.676,4.691
			c49.096-17.493,70.768-42.963,71.48-43.405c4.243,2.873,13.608,23.792,13.608,62.13c0,39.4-9.89,60.402-13.949,62.328
			c-0.444-0.243-50-58.274-168.884-58.589c-0.085,0-22.547-0.011-22.547-0.011v-7.373h23.175c7.265,0,14.508-0.215,21.527-0.638
			c4.191-0.253,7.385-3.856,7.133-8.048s-3.856-7.391-8.048-7.133c-6.716,0.405-13.651,0.61-20.612,0.61h-23.175
			c0,0,0.242-19.731-15.208-22.45v-8.772h3.211c4.199,0,7.604-3.405,7.604-7.604c0-4.199-3.405-7.604-7.604-7.604h-21.629
			c-4.199,0-7.604,3.405-7.604,7.604c0,4.199,3.405,7.604,7.604,7.604h3.211v8.771c-6.564,2.328-11.752,7.58-13.995,14.183
			c-2.245-6.603-7.432-11.855-13.996-14.183v-8.771h3.211c4.199,0,7.604-3.405,7.604-7.604c0-4.199-3.405-7.604-7.604-7.604h-21.629
			c-4.199,0-7.604,3.405-7.604,7.604c0,4.199,3.405,7.604,7.604,7.604h3.21v8.772c-6.564,2.328-11.752,7.58-13.995,14.183
			c-2.245-6.603-7.432-11.854-13.995-14.183v-8.94h3.211c4.199,0,7.604-3.405,7.604-7.604s-3.405-7.604-7.604-7.604h-21.629
			c-4.199,0-7.604,3.405-7.604,7.604s3.405,7.604,7.604,7.604h3.211v8.94c-8.85,3.139-15.208,11.59-15.208,21.504v0.946
			c-24.933,0.003-46.163,7.793-61.699,22.582H51.262c-1.539-3.249-4.565-5.692-8.293-6.379l-29.417-5.419
			c-3.32-0.608-6.832,0.311-9.419,2.467C1.507,207.859,0,211.073,0,214.492v36.769c0,3.418,1.396,6.771,4.129,8.816
			c4.488,3.357,8.738,2.595,9.423,2.47l29.415-5.419c3.535-0.651,6.433-2.886,8.037-5.885l25.325-0.055
			c-3.791,13.386-3.726,24.69-3.58,28.292c0.051,10.45,1.881,20.13,5.218,28.862c2.341,6.125,8.943,4.661,9.855,4.304
			c3.909-1.533,5.837-5.945,4.304-9.855c-2.738-6.985-4.142-14.895-4.169-23.511l-0.007-0.309
			c-0.136-3.085-0.788-30.715,17.784-50.49c12.989-13.83,31.04-20.844,53.655-20.846v7.374h-0.138
			c-20.093,0-36.71,6.331-48.055,18.308c-17.168,18.124-16.014,44.33-15.951,45.521l0.005,0.079l-0.001,0.099
			c0,22.455,10.216,38.464,30.362,47.584c15.757,7.133,33.492,7.317,33.779,7.336v7.226c0,0-19.036-0.087-36.109-7.616
			c-8.175-3.605-15.046-8.287-20.423-13.917c-2.901-3.038-7.714-3.147-10.751-0.246c-3.038,2.901-3.147,7.714-0.247,10.751
			c6.765,7.082,15.315,12.814,25.284,17.328c21.924,9.927,42.267,8.91,42.267,8.91c0.451,12.184,10.497,21.958,22.791,21.958
			c10.018,0,18.541-6.494,21.599-15.491c3.058,8.997,11.582,15.491,21.599,15.491c10.017,0,18.541-6.494,21.599-15.491
			c3.058,8.997,11.582,15.491,21.599,15.491c12.292,0,22.338-9.774,22.791-21.958h21.308c38.683,0,70.153-31.47,70.153-70.153
			c0-36.975-22.18-51.723-23.042-52.523c32.565,4.917,56.702,14.218,72.835,22.429c24.126,12.278,35.889,24.725,36.942,25.87
			c1.311,1.592,6.205,6.893,13.198,6.893c6.643,0,15.947-4.487,22.546-25.864c4.3-13.928,6.668-32.304,6.668-51.741
			S509.632,173.463,505.332,159.535z M37.156,242.733l-21.948,4.043v-27.8l21.948,4.042V242.733z M82.215,235.965l-29.851,0.065
			v-5.818h33.048C84.243,232.121,83.181,234.043,82.215,235.965z M159.389,318.63c-3.484-0.693-6.119-3.771-6.119-7.456
			c0-3.684,2.634-6.763,6.119-7.456V318.63z M159.389,288.416c-22.855,2.221-21.195,25.501-20.957,26.82
			c-2.161-0.685-43.806-12.431-21.539-64.138l42.496-0.092V288.416z M159.389,235.797l-26.543,0.058
			c7.259-3.743,16.086-5.643,26.406-5.643h0.137V235.797z M189.805,355.512c0,4.193-3.411,7.604-7.604,7.604
			c-4.193,0-7.604-3.411-7.604-7.604V191.476c0-4.193,3.411-7.604,7.604-7.604c4.193,0,7.604,3.411,7.604,7.604V355.512z
			 M233.005,355.512c0,4.193-3.411,7.604-7.604,7.604c-4.193,0-7.604-3.411-7.604-7.604V191.476c0-4.193,3.411-7.604,7.604-7.604
			c4.193,0,7.604,3.411,7.604,7.604V355.512z M276.204,355.512c0,4.193-3.411,7.604-7.604,7.604s-7.604-3.411-7.604-7.604V191.476
			c0-4.193,3.411-7.604,7.604-7.604s7.604,3.411,7.604,7.604V355.512z M367.644,286.214c0,30.297-24.648,54.945-54.945,54.945
			h-21.287v-7.226c0.287-0.018,21.287-0.066,21.287-0.066c26.276,0,47.654-21.377,47.654-47.653
			c0-27.063-22.267-50.804-47.672-50.804l-21.27,0.051v-5.249c0,0,21.243,0.006,21.53,0.006
			C342.619,230.358,367.644,255.941,367.644,286.214z M291.412,288.416v-37.748l21.287-0.051c16.981,0,32.198,16.968,32.446,35.596
			c0.414,31.122-33.673,32.445-33.673,32.445c0.817-2.346,1.267-4.862,1.267-7.484C312.738,299.095,303.3,289.184,291.412,288.416z
			 M297.531,311.174c0,3.684-2.634,6.763-6.119,7.456v-14.912C294.896,304.411,297.531,307.489,297.531,311.174z"/>
	</g>
</g>
<g>
	<g>
		<path d="M481.689,173.015c-2.999-2.939-7.814-2.891-10.753,0.109c-11.713,11.953-32.007,19.663-43.061,23.193
			c-4,1.279-6.207,5.557-4.929,9.558c1.032,3.231,4.022,5.292,7.242,5.292c0.766,0,1.547-0.117,2.315-0.363
			c15.143-4.837,35.987-13.454,49.296-27.037C484.737,180.768,484.688,175.954,481.689,173.015z"/>
	</g>
</g>
</svg>